<svg xmlns="http://www.w3.org/2000/svg" width="440" height="280" viewBox="0 0 440 280">
  <defs>
    <linearGradient id="bg" x1="0" y1="0" x2="440" y2="280" gradientUnits="userSpaceOnUse">
      <stop offset="0" stop-color="#101f29"/>
      <stop offset="1" stop-color="#281719"/>
    </linearGradient>
    <linearGradient id="accent" x1="104" y1="58" x2="320" y2="218" gradientUnits="userSpaceOnUse">
      <stop offset="0" stop-color="#40d8c8"/>
      <stop offset="1" stop-color="#ff7a66"/>
    </linearGradient>
  </defs>
  <rect width="440" height="280" fill="url(#bg)"/>
  <rect x="34" y="32" width="82" height="82" rx="22" fill="#11191f" stroke="#ffffff" stroke-opacity=".18" stroke-width="2"/>
  <path d="M58 61h19l13 15h16" fill="none" stroke="#9ffff4" stroke-width="6" stroke-linecap="round" stroke-linejoin="round"/>
  <path d="M58 91h19l13-15" fill="none" stroke="#ffb19f" stroke-width="6" stroke-linecap="round" stroke-linejoin="round"/>
  <circle cx="56" cy="61" r="9" fill="#40d8c8"/>
  <circle cx="56" cy="91" r="9" fill="#ff7a66"/>
  <circle cx="90" cy="76" r="9" fill="url(#accent)"/>
  <path d="M94 58h12c6 0 9 3 9 8v20c0 5-3 8-9 8H94" fill="none" stroke="#f8fbff" stroke-width="6" stroke-linecap="round"/>
  <path d="M99 76h20" fill="none" stroke="#f8fbff" stroke-width="6" stroke-linecap="round"/>
  <path d="M110 67l10 9-10 9" fill="none" stroke="#f8fbff" stroke-width="6" stroke-linecap="round" stroke-linejoin="round"/>

  <text x="136" y="68" fill="#f7fbff" font-family="-apple-system, BlinkMacSystemFont, Segoe UI, sans-serif" font-size="30" font-weight="700">Network Exporter</text>
  <text x="136" y="101" fill="#c8d8dc" font-family="-apple-system, BlinkMacSystemFont, Segoe UI, sans-serif" font-size="15">Select requests. Copy JSON or Markdown.</text>

  <rect x="36" y="150" width="368" height="84" rx="12" fill="#fffafa" stroke="#ead1cd"/>
  <rect x="36" y="150" width="368" height="28" rx="12" fill="#fff0ee"/>
  <text x="54" y="169" fill="#4b3835" font-family="-apple-system, BlinkMacSystemFont, Segoe UI, sans-serif" font-size="12" font-weight="700">Name</text>
  <text x="178" y="169" fill="#4b3835" font-family="-apple-system, BlinkMacSystemFont, Segoe UI, sans-serif" font-size="12" font-weight="700">Status</text>
  <text x="246" y="169" fill="#4b3835" font-family="-apple-system, BlinkMacSystemFont, Segoe UI, sans-serif" font-size="12" font-weight="700">Export</text>
  <text x="54" y="198" fill="#2b2020" font-family="-apple-system, BlinkMacSystemFont, Segoe UI, sans-serif" font-size="13">token</text>
  <text x="178" y="198" fill="#2b2020" font-family="-apple-system, BlinkMacSystemFont, Segoe UI, sans-serif" font-size="13">200</text>
  <rect x="246" y="184" width="128" height="24" rx="6" fill="#f6ded9" stroke="#d99a8e"/>
  <text x="264" y="201" fill="#2b2020" font-family="-apple-system, BlinkMacSystemFont, Segoe UI, sans-serif" font-size="12" font-weight="700">Copy JSON</text>
</svg>
