<svg xmlns="http://www.w3.org/2000/svg" width="1400" height="560" viewBox="0 0 1400 560">
  <defs>
    <linearGradient id="bg" x1="0" y1="0" x2="1400" y2="560" gradientUnits="userSpaceOnUse">
      <stop offset="0" stop-color="#0d1a22"/>
      <stop offset="0.55" stop-color="#12181d"/>
      <stop offset="1" stop-color="#2a171a"/>
    </linearGradient>
    <linearGradient id="panel" x1="480" y1="80" x2="1260" y2="480" gradientUnits="userSpaceOnUse">
      <stop offset="0" stop-color="#fffafa"/>
      <stop offset="1" stop-color="#fff3f1"/>
    </linearGradient>
    <linearGradient id="accent" x1="185" y1="161" x2="352" y2="336" gradientUnits="userSpaceOnUse">
      <stop offset="0" stop-color="#40d8c8"/>
      <stop offset="1" stop-color="#ff7a66"/>
    </linearGradient>
    <filter id="shadow" x="-20%" y="-20%" width="140%" height="140%">
      <feDropShadow dx="0" dy="24" stdDeviation="32" flood-color="#000000" flood-opacity="0.35"/>
    </filter>
  </defs>

  <rect width="1400" height="560" fill="url(#bg)"/>
  <g opacity=".2" stroke="#40d8c8" stroke-width="1">
    <path d="M0 120H1400"/>
    <path d="M0 220H1400"/>
    <path d="M0 320H1400"/>
    <path d="M0 420H1400"/>
    <path d="M120 0V560"/>
    <path d="M260 0V560"/>
    <path d="M400 0V560"/>
    <path d="M540 0V560"/>
    <path d="M680 0V560"/>
    <path d="M820 0V560"/>
    <path d="M960 0V560"/>
    <path d="M1100 0V560"/>
    <path d="M1240 0V560"/>
  </g>

  <g transform="translate(96 96)">
    <rect x="0" y="0" width="126" height="126" rx="31" fill="#11191f" stroke="#ffffff" stroke-opacity=".18" stroke-width="3"/>
    <path d="M37 44h26l20 24h26" fill="none" stroke="#a7fff4" stroke-width="9" stroke-linecap="round" stroke-linejoin="round"/>
    <path d="M37 88h26l20-20" fill="none" stroke="#ffb19f" stroke-width="9" stroke-linecap="round" stroke-linejoin="round"/>
    <circle cx="35" cy="44" r="14" fill="#40d8c8"/>
    <circle cx="35" cy="88" r="14" fill="#ff7a66"/>
    <circle cx="83" cy="68" r="14" fill="url(#accent)"/>
    <path d="M86 44h19c8 0 13 5 13 13v23c0 8-5 13-13 13H86" fill="none" stroke="#f8fbff" stroke-width="9" stroke-linecap="round"/>
    <path d="M96 68h30" fill="none" stroke="#f8fbff" stroke-width="9" stroke-linecap="round"/>
    <path d="M112 54l15 14-15 14" fill="none" stroke="#f8fbff" stroke-width="9" stroke-linecap="round" stroke-linejoin="round"/>
  </g>

  <text x="96" y="278" fill="#f7fbff" font-family="-apple-system, BlinkMacSystemFont, Segoe UI, sans-serif" font-size="54" font-weight="750">Network Exporter</text>
  <text x="100" y="333" fill="#d0dee1" font-family="-apple-system, BlinkMacSystemFont, Segoe UI, sans-serif" font-size="25">Select DevTools requests, choose fields,</text>
  <text x="100" y="368" fill="#d0dee1" font-family="-apple-system, BlinkMacSystemFont, Segoe UI, sans-serif" font-size="25">then copy clean JSON or Markdown.</text>

  <g transform="translate(100 420)">
    <rect x="0" y="0" width="172" height="42" rx="10" fill="#f6ded9" stroke="#ff9a86"/>
    <text x="22" y="28" fill="#281719" font-family="-apple-system, BlinkMacSystemFont, Segoe UI, sans-serif" font-size="16" font-weight="700">Copy selected JSON</text>
    <rect x="190" y="0" width="154" height="42" rx="10" fill="rgba(64,216,200,.12)" stroke="#40d8c8"/>
    <text x="212" y="28" fill="#d9fff9" font-family="-apple-system, BlinkMacSystemFont, Segoe UI, sans-serif" font-size="16" font-weight="700">Local DevTools</text>
  </g>

  <g transform="translate(610 96) scale(.86)" filter="url(#shadow)">
    <rect x="0" y="0" width="800" height="392" rx="18" fill="url(#panel)" stroke="#ead1cd"/>
    <rect x="0" y="0" width="800" height="52" rx="18" fill="#fff3f1"/>
    <rect x="25" y="17" width="24" height="24" rx="6" fill="#e66b5e"/>
    <rect x="62" y="17" width="24" height="24" rx="6" fill="#fffafa" stroke="#d99a8e"/>
    <rect x="100" y="17" width="24" height="24" rx="6" fill="#f6ded9" stroke="#d99a8e"/>
    <rect x="146" y="13" width="440" height="30" rx="7" fill="#fff" stroke="#ead1cd"/>
    <text x="164" y="34" fill="#735f5c" font-family="-apple-system, BlinkMacSystemFont, Segoe UI, sans-serif" font-size="15">Filter by URL, method, status, domain, or type</text>
    <text x="616" y="33" fill="#2b2020" font-family="-apple-system, BlinkMacSystemFont, Segoe UI, sans-serif" font-size="14">Exclude extensions</text>

    <g transform="translate(20 70)">
      <rect x="0" y="0" width="49" height="32" rx="8" fill="#fff" stroke="#d99a8e"/>
      <text x="16" y="22" fill="#2b2020" font-family="-apple-system, BlinkMacSystemFont, Segoe UI, sans-serif" font-size="14" font-weight="700">All</text>
      <rect x="60" y="0" width="95" height="32" rx="8" fill="#f6ded9" stroke="#d99a8e"/>
      <text x="75" y="22" fill="#2b2020" font-family="-apple-system, BlinkMacSystemFont, Segoe UI, sans-serif" font-size="14" font-weight="700">Fetch/XHR</text>
      <rect x="167" y="0" width="58" height="32" rx="8" fill="#fff" stroke="#d99a8e"/>
      <text x="183" y="22" fill="#2b2020" font-family="-apple-system, BlinkMacSystemFont, Segoe UI, sans-serif" font-size="14" font-weight="700">Doc</text>
      <rect x="237" y="0" width="52" height="32" rx="8" fill="#fff" stroke="#d99a8e"/>
      <text x="253" y="22" fill="#2b2020" font-family="-apple-system, BlinkMacSystemFont, Segoe UI, sans-serif" font-size="14" font-weight="700">JS</text>
    </g>

    <g transform="translate(20 122)">
      <text x="0" y="18" fill="#735f5c" font-family="-apple-system, BlinkMacSystemFont, Segoe UI, sans-serif" font-size="14">4 of 239 requests</text>
      <text x="468" y="18" fill="#735f5c" font-family="-apple-system, BlinkMacSystemFont, Segoe UI, sans-serif" font-size="14">2 selected</text>
      <rect x="0" y="36" width="562" height="36" fill="#fff0ee" stroke="#ead1cd"/>
      <text x="42" y="59" fill="#4b3835" font-family="-apple-system, BlinkMacSystemFont, Segoe UI, sans-serif" font-size="14" font-weight="700">Name</text>
      <text x="210" y="59" fill="#4b3835" font-family="-apple-system, BlinkMacSystemFont, Segoe UI, sans-serif" font-size="14" font-weight="700">Method</text>
      <text x="308" y="59" fill="#4b3835" font-family="-apple-system, BlinkMacSystemFont, Segoe UI, sans-serif" font-size="14" font-weight="700">Status</text>
      <text x="405" y="59" fill="#4b3835" font-family="-apple-system, BlinkMacSystemFont, Segoe UI, sans-serif" font-size="14" font-weight="700">Type</text>
      <rect x="0" y="72" width="562" height="34" fill="#ead4d0" stroke="#b35a4e" stroke-width="2"/>
      <text x="42" y="94" fill="#2b2020" font-family="-apple-system, BlinkMacSystemFont, Segoe UI, sans-serif" font-size="14">token</text>
      <text x="210" y="94" fill="#2b2020" font-family="-apple-system, BlinkMacSystemFont, Segoe UI, sans-serif" font-size="14">POST</text>
      <text x="308" y="94" fill="#2b2020" font-family="-apple-system, BlinkMacSystemFont, Segoe UI, sans-serif" font-size="14">200</text>
      <text x="405" y="94" fill="#2b2020" font-family="-apple-system, BlinkMacSystemFont, Segoe UI, sans-serif" font-size="14">fetch</text>
      <rect x="0" y="106" width="562" height="34" fill="#fff7f6" stroke="#ead1cd"/>
      <text x="42" y="128" fill="#2b2020" font-family="-apple-system, BlinkMacSystemFont, Segoe UI, sans-serif" font-size="14">capabilities</text>
      <text x="210" y="128" fill="#2b2020" font-family="-apple-system, BlinkMacSystemFont, Segoe UI, sans-serif" font-size="14">GET</text>
      <text x="308" y="128" fill="#2b2020" font-family="-apple-system, BlinkMacSystemFont, Segoe UI, sans-serif" font-size="14">200</text>
      <text x="405" y="128" fill="#2b2020" font-family="-apple-system, BlinkMacSystemFont, Segoe UI, sans-serif" font-size="14">fetch</text>

      <g transform="translate(590 36)">
        <text x="0" y="-12" fill="#2b2020" font-family="-apple-system, BlinkMacSystemFont, Segoe UI, sans-serif" font-size="20" font-weight="750">Export</text>
        <rect x="0" y="0" width="172" height="130" rx="8" fill="#fff" stroke="#ead1cd"/>
        <text x="18" y="31" fill="#2b2020" font-family="-apple-system, BlinkMacSystemFont, Segoe UI, sans-serif" font-size="14">☑ curlRequest</text>
        <text x="18" y="58" fill="#2b2020" font-family="-apple-system, BlinkMacSystemFont, Segoe UI, sans-serif" font-size="14">☑ statusCode</text>
        <text x="18" y="85" fill="#2b2020" font-family="-apple-system, BlinkMacSystemFont, Segoe UI, sans-serif" font-size="14">☑ responseBody</text>
        <rect x="0" y="146" width="172" height="34" rx="8" fill="#fff" stroke="#d99a8e"/>
        <text x="36" y="168" fill="#2b2020" font-family="-apple-system, BlinkMacSystemFont, Segoe UI, sans-serif" font-size="14" font-weight="700">Copy JSON</text>
      </g>

      <g transform="translate(0 176)">
        <rect x="0" y="0" width="562" height="78" fill="#fffdfc" stroke="#ead1cd"/>
        <text x="12" y="25" fill="#2b2020" font-family="-apple-system, BlinkMacSystemFont, Segoe UI, sans-serif" font-size="14" font-weight="700">POST token</text>
        <rect x="360" y="14" width="80" height="30" rx="7" fill="#f6ded9" stroke="#d99a8e"/>
        <text x="378" y="34" fill="#2b2020" font-family="-apple-system, BlinkMacSystemFont, Segoe UI, sans-serif" font-size="13" font-weight="700">Headers</text>
        <text x="12" y="54" fill="#735f5c" font-family="ui-monospace, SFMono-Regular, Menlo, Consolas, monospace" font-size="12">Status: 200   Content-Type: application/json</text>
      </g>
    </g>
  </g>
</svg>
